<svg xmlns="http://www.w3.org/2000/svg" xmlns:xlink="http://www.w3.org/1999/xlink" id="Layer_1" x="0" y="0" version="1.1" viewBox="0 0 506.4 79.6" xml:space="preserve" style="enable-background:new 0 0 506.4 79.6"><style type="text/css">.st0{fill:#b92228}.st1{enable-background:new}</style><path d="M60.5,78.6H42.8c-0.1-0.7-0.2-1.4-0.2-2.2c0-0.7,0.1-1.5,0.2-2.2l6.5-0.7l-6.1-17.7h-26l-6.1,17.7l6.5,0.7	c0.1,0.7,0.2,1.4,0.2,2.2c0,0.7-0.1,1.4-0.2,2.2H0.2C0.1,77.9,0,77.2,0,76.5c0-0.7,0.1-1.5,0.2-2.2l5.6-0.7	c6.4-19.8,13.9-40.9,21.5-61.3h5.9c7.7,20.3,15.2,41.5,21.5,61.3l5.7,0.7c0.1,0.7,0.2,1.4,0.2,2.2C60.7,77.2,60.6,77.9,60.5,78.6z M31.2,21.1c-0.4-1-0.6-2.1-0.7-3.2h-0.6c-0.1,1.1-0.3,2.2-0.7,3.2L18.8,51.4h22.8L31.2,21.1z" class="st0"/><path d="M123.4,78.6h-17.7c-0.1-0.7-0.2-1.4-0.2-2.2c0-0.7,0.1-1.5,0.2-2.2l6.5-0.7l-6.1-17.7h-26L74,73.6l6.5,0.7	c0.1,0.7,0.2,1.4,0.2,2.2c0,0.7-0.1,1.4-0.2,2.2H63.1c-0.1-0.7-0.2-1.4-0.2-2.2c0-0.7,0.1-1.5,0.2-2.2l5.6-0.7	c6.4-19.8,13.9-40.9,21.5-61.3h5.9c7.7,20.4,15.1,41.5,21.5,61.3l5.7,0.7c0.1,0.7,0.2,1.4,0.2,2.2C123.6,77.2,123.5,77.9,123.4,78.6	z M94.1,21.1c-0.4-1-0.6-2.1-0.7-3.2h-0.6c-0.1,1.1-0.3,2.2-0.7,3.2L81.7,51.4h22.8L94.1,21.1z" class="st0"/><path d="M178.4,75.8c0,2.4-1.4,3.8-4.2,3.8c-3.8,0-6.7-1.6-9.8-7.5l-12-22.4h-12.1v23.9l7,0.7c0.1,0.7,0.2,1.4,0.2,2.2	c0,0.7-0.1,1.4-0.2,2.2h-19.7c-0.1-0.7-0.2-1.4-0.2-2.2c0-0.7,0.1-1.5,0.2-2.2l7.2-0.7V17.4l-7.2-0.7c-0.1-0.7-0.2-1.4-0.2-2.2	c0-0.7,0.1-1.4,0.2-2.2c7.6-0.3,18.4-0.5,23.2-0.5c12.5,0,21.9,4.2,21.9,18.3c0,9.5-5.7,16.8-14.8,18.6l11.9,21.7	c1.7,3,3.2,3.7,6.2,3.7h2.5V75.8z M150.7,16.7c-3,0-7.5,0.1-10.5,0.2v28h10.4c10.9,0,16.2-4.9,16.2-14.8	C166.9,19.8,161.1,16.7,150.7,16.7z" class="st0"/><path d="M213.8,79.1c-8.5,0-19.4-0.2-27.3-0.5c-0.1-0.7-0.2-1.4-0.2-2.2c0-0.7,0.1-1.5,0.2-2.2l7.2-0.7V17.4l-7.2-0.7	c-0.1-0.7-0.2-1.4-0.2-2.2c0-0.7,0.1-1.4,0.2-2.2c6.7-0.3,18.8-0.5,27.2-0.5c16.7,0,28.5,9.2,28.5,32.3	C242.2,68.3,230.1,79.1,213.8,79.1z M213.4,16.7c-4.4,0-8.8,0.1-14.2,0.3v57c4.4,0.2,9.6,0.3,14.1,0.3c14.9,0,22.9-9.9,22.9-29.4	C236.2,21.3,224.1,16.7,213.4,16.7z" class="st0"/><path d="M305.2,16.7l-5.6,0.7c-6.2,19.9-13.3,40.9-20.6,61.3h-5.9c-7.3-20.3-14.4-41.4-20.6-61.3l-5.7-0.7	c-0.1-0.7-0.2-1.4-0.2-2.2c0-0.7,0.1-1.4,0.2-2.2h17.8c0.1,0.7,0.2,1.4,0.2,2.2c0,0.7-0.1,1.5-0.2,2.2l-6.5,0.7l17,52.2	c0.4,1.1,0.6,2.2,0.7,3.3h0.6c0.1-1.1,0.3-2.3,0.7-3.3l17-52.2l-6.5-0.7c-0.1-0.7-0.2-1.4-0.2-2.2c0-0.7,0.1-1.4,0.2-2.2h17.5	c0.1,0.7,0.2,1.4,0.2,2.2C305.3,15.2,305.3,16,305.2,16.7z" class="st0"/><path d="M361.7,78.6H344c-0.1-0.7-0.2-1.4-0.2-2.2c0-0.7,0.1-1.5,0.2-2.2l6.5-0.7l-6.1-17.7h-26l-6.1,17.7l6.5,0.7	c0.1,0.7,0.2,1.4,0.2,2.2c0,0.7-0.1,1.4-0.2,2.2h-17.3c-0.1-0.7-0.2-1.4-0.2-2.2c0-0.7,0.1-1.5,0.2-2.2l5.6-0.7	c6.4-19.8,13.9-40.9,21.5-61.3h5.9c7.7,20.4,15.1,41.5,21.5,61.3l5.7,0.7c0.1,0.7,0.2,1.4,0.2,2.2C361.9,77.2,361.9,77.9,361.7,78.6	z M332.4,21.1c-0.4-1-0.6-2.1-0.7-3.2h-0.6c-0.1,1.1-0.3,2.2-0.7,3.2L320,51.4h22.8L332.4,21.1z" class="st0"/><path d="M416.7,75.8c0,2.4-1.4,3.8-4.2,3.8c-3.8,0-6.7-1.6-9.8-7.5l-12-22.4h-12.1v23.9l7,0.7c0.1,0.7,0.2,1.4,0.2,2.2	c0,0.7-0.1,1.4-0.2,2.2h-19.7c-0.1-0.7-0.2-1.4-0.2-2.2c0-0.7,0.1-1.5,0.2-2.2l7.2-0.7V17.4l-7.2-0.7c-0.1-0.7-0.2-1.4-0.2-2.2	c0-0.7,0.1-1.4,0.2-2.2c7.6-0.3,18.4-0.5,23.2-0.5c12.5,0,21.9,4.2,21.9,18.3c0,9.5-5.7,16.8-14.9,18.6L408,70.5	c1.7,3,3.2,3.7,6.2,3.7h2.5L416.7,75.8z M389.1,16.7c-3,0-7.5,0.1-10.5,0.2v28H389c10.9,0,16.2-4.9,16.2-14.8	C405.2,19.8,399.4,16.7,389.1,16.7z" class="st0"/><path d="M469.8,75.4c-4.8,3-11.8,4.2-17.7,4.2c-18.5,0-27.7-11.8-27.7-34.2c0-23.7,11-34,28.1-34c5.5,0,12.5,1,16.7,3.2	v12.2c-1.5,0.3-3,0.3-4.5,0l-1.1-8.4c-2.2-1.1-6.9-2-11.2-2c-14.5,0-22,7.4-22,29c0,19.8,6.5,29.2,21.6,29.2c4.1,0,9.3-0.8,12.2-2.1	l1.1-7.9c1.5-0.3,3-0.3,4.5,0L469.8,75.4z" class="st0"/><g class="st1"><path d="M506.4,19.9c0,3-1.1,5.6-3.2,7.8c-2.2,2.2-4.8,3.2-7.8,3.2c-3.1,0-5.7-1.1-7.8-3.2c-2.2-2.2-3.3-4.8-3.3-7.8 c0-3.1,1.1-5.7,3.3-7.8c2.2-2.2,4.8-3.3,7.8-3.3c3,0,5.7,1.1,7.8,3.3C505.3,14.2,506.4,16.9,506.4,19.9z M504.7,19.9 c0-2.6-0.9-4.8-2.7-6.6c-1.8-1.8-4-2.8-6.6-2.8c-2.6,0-4.8,0.9-6.6,2.8c-1.8,1.8-2.8,4.1-2.8,6.6s0.9,4.8,2.8,6.6 c1.8,1.8,4.1,2.8,6.6,2.8c2.6,0,4.8-0.9,6.6-2.8C503.8,24.7,504.7,22.5,504.7,19.9z M499,23.9l-0.1,1.5c-1.1,0.2-1.9,0.3-2.5,0.3 c-2.1,0-3.7-0.6-4.8-1.7c-1.1-1.2-1.6-2.6-1.6-4.3c0-1.7,0.6-3.2,1.8-4.5c1.2-1.3,2.8-1.9,4.8-1.9c0.6,0,1.1,0.1,1.8,0.3l-0.3,1.6 c-0.7-0.2-1.3-0.3-1.9-0.3c-1.4,0-2.5,0.5-3.2,1.4c-0.8,0.9-1.1,2-1.1,3.2c0,1.2,0.4,2.3,1.3,3.3c0.9,1,2,1.5,3.5,1.5 C497.3,24.3,498,24.2,499,23.9z" class="st0"/></g></svg>