<svg xmlns="http://www.w3.org/2000/svg" viewBox="0 0 506.41 79.61"><defs><style>.cls-1,.cls-2{fill:#B92228;}.cls-2{font-size:37.76px;font-family:Candara, Candara;letter-spacing:-0.11em;}</style></defs><title>logo-red</title><g id="Layer_2" data-name="Layer 2"><g id="Layer_2-2" data-name="Layer 2"><path class="cls-1" d="M60.47,78.63H42.77a14.55,14.55,0,0,1-.2-2.16,15.92,15.92,0,0,1,.2-2.17l6.49-.68-6.1-17.7H17.21l-6.1,17.7,6.49.68a15.92,15.92,0,0,1,.2,2.17,14.55,14.55,0,0,1-.2,2.16H.2A14.55,14.55,0,0,1,0,76.47,15.92,15.92,0,0,1,.2,74.3l5.6-.68c6.39-19.77,13.87-40.91,21.53-61.26h5.9C40.9,32.71,48.38,53.85,54.77,73.62l5.7.68a15.92,15.92,0,0,1,.2,2.17A14.55,14.55,0,0,1,60.47,78.63ZM31.17,21.11a14,14,0,0,1-.69-3.24h-.59a13.45,13.45,0,0,1-.69,3.24L18.78,51.4H41.59Z"/><path class="cls-1" d="M123.39,78.63h-17.7a16.07,16.07,0,0,1-.19-2.16,17.66,17.66,0,0,1,.19-2.17l6.49-.68-6.09-17.7h-26L74,73.62l6.49.68a15.92,15.92,0,0,1,.2,2.17,14.55,14.55,0,0,1-.2,2.16H63.12a14.55,14.55,0,0,1-.2-2.16,15.92,15.92,0,0,1,.2-2.17l5.6-.68c6.4-19.77,13.87-40.91,21.54-61.26h5.9c7.67,20.35,15.14,41.49,21.53,61.26l5.7.68a15.92,15.92,0,0,1,.2,2.17A14.55,14.55,0,0,1,123.39,78.63ZM94.09,21.11a14,14,0,0,1-.69-3.24h-.59a13.41,13.41,0,0,1-.68,3.24L81.7,51.4h22.81Z"/><path class="cls-1" d="M178.36,75.78c0,2.36-1.38,3.83-4.23,3.83-3.83,0-6.69-1.57-9.83-7.47l-12-22.42H140.21v23.9l7,.68a15.92,15.92,0,0,1,.2,2.17,14.55,14.55,0,0,1-.2,2.16H127.52a16.07,16.07,0,0,1-.19-2.16,17.66,17.66,0,0,1,.19-2.17l7.18-.68V17.37l-7.18-.68a16.08,16.08,0,0,1-.19-2.17,17.5,17.5,0,0,1,.19-2.16c7.57-.3,18.39-.49,23.21-.49,12.49,0,21.92,4.23,21.92,18.29,0,9.53-5.7,16.81-14.84,18.58l11.9,21.73c1.67,3,3.24,3.74,6.19,3.74h2.46ZM150.73,16.69c-3,0-7.47.09-10.52.19v28h10.42c10.91,0,16.22-4.92,16.22-14.75C166.85,19.83,161.05,16.69,150.73,16.69Z"/><path class="cls-1" d="M213.76,79.12c-8.46,0-19.37-.19-27.34-.49a14.55,14.55,0,0,1-.2-2.16,15.92,15.92,0,0,1,.2-2.17l7.18-.68V17.37l-7.18-.68a14.56,14.56,0,0,1-.2-2.17,15.77,15.77,0,0,1,.2-2.16c6.69-.3,18.78-.49,27.24-.49,16.71,0,28.51,9.24,28.51,32.25C242.17,68.31,230.08,79.12,213.76,79.12Zm-.4-62.43c-4.42,0-8.75.09-14.16.29V74c4.43.2,9.64.29,14.06.29,14.85,0,22.91-9.93,22.91-29.39C236.17,21.31,224.08,16.69,213.36,16.69Z"/><path class="cls-1" d="M305.2,16.69l-5.61.68C293.4,37.24,286.32,58.28,279,78.63h-5.9c-7.27-20.35-14.35-41.39-20.55-61.26l-5.7-.68a14.6,14.6,0,0,1-.19-2.17,15.75,15.75,0,0,1,.19-2.16h17.8a15.77,15.77,0,0,1,.2,2.16,14.56,14.56,0,0,1-.2,2.17l-6.49.68,17,52.22a14.62,14.62,0,0,1,.69,3.34h.59a14.11,14.11,0,0,1,.69-3.34l17-52.22-6.49-.68a14.56,14.56,0,0,1-.2-2.17,15.77,15.77,0,0,1,.2-2.16h17.5a15.77,15.77,0,0,1,.2,2.16A14.56,14.56,0,0,1,305.2,16.69Z"/><path class="cls-1" d="M361.74,78.63H344a14.55,14.55,0,0,1-.2-2.16,15.92,15.92,0,0,1,.2-2.17l6.49-.68-6.1-17.7h-26l-6.09,17.7,6.49.68a17.66,17.66,0,0,1,.19,2.17,16.07,16.07,0,0,1-.19,2.16H301.46a14.59,14.59,0,0,1-.19-2.16,15.9,15.9,0,0,1,.19-2.17l5.61-.68c6.39-19.77,13.86-40.91,21.53-61.26h5.9c7.67,20.35,15.14,41.49,21.53,61.26l5.71.68a17.66,17.66,0,0,1,.19,2.17A16.07,16.07,0,0,1,361.74,78.63ZM332.43,21.11a13.41,13.41,0,0,1-.68-3.24h-.59a14,14,0,0,1-.69,3.24L320.05,51.4h22.81Z"/><path class="cls-1" d="M416.7,75.78c0,2.36-1.38,3.83-4.23,3.83-3.83,0-6.68-1.57-9.83-7.47l-12-22.42H378.55v23.9l7,.68a15.92,15.92,0,0,1,.2,2.17,14.55,14.55,0,0,1-.2,2.16H365.87a14.55,14.55,0,0,1-.2-2.16,15.92,15.92,0,0,1,.2-2.17l7.17-.68V17.37l-7.17-.68a14.56,14.56,0,0,1-.2-2.17,15.77,15.77,0,0,1,.2-2.16c7.57-.3,18.38-.49,23.2-.49,12.49,0,21.93,4.23,21.93,18.29,0,9.53-5.71,16.81-14.85,18.58l11.9,21.73c1.67,3,3.24,3.74,6.19,3.74h2.46ZM389.07,16.69c-3.05,0-7.47.09-10.52.19v28H389c10.92,0,16.23-4.92,16.23-14.75C405.2,19.83,399.39,16.69,389.07,16.69Z"/><path class="cls-1" d="M469.8,75.39c-4.82,3-11.8,4.22-17.7,4.22-18.49,0-27.73-11.79-27.73-34.21,0-23.7,11-34,28.12-34,5.51,0,12.49,1,16.72,3.24V26.81a12.93,12.93,0,0,1-4.53,0l-1.08-8.45c-2.16-1.08-6.88-2-11.21-2-14.55,0-22,7.38-22,29,0,19.76,6.49,29.2,21.63,29.2,4.13,0,9.34-.79,12.19-2.06l1.08-7.87a12.93,12.93,0,0,1,4.53,0Z"/><text class="cls-2" transform="translate(483.25 30.94)">©</text></g></g></svg>